<svg width="56" height="56" viewBox="0 0 56 56" fill="none" xmlns="http://www.w3.org/2000/svg">
<path d="M14.1408 39.2142C16.0866 37.7262 18.2614 36.5529 20.6651 35.6945C23.0688 34.836 25.587 34.4068 28.2197 34.4068C30.8523 34.4068 33.3705 34.836 35.7742 35.6945C38.1779 36.5529 40.3527 37.7262 42.2986 39.2142C43.634 37.6499 44.6737 35.8757 45.4177 33.8917C46.1617 31.9077 46.5337 29.7901 46.5337 27.539C46.5337 22.4645 44.75 18.1435 41.1825 14.5761C37.6151 11.0087 33.2942 9.22499 28.2197 9.22499C23.1452 9.22499 18.8242 11.0087 15.2568 14.5761C11.6894 18.1435 9.90565 22.4645 9.90565 27.539C9.90565 29.7901 10.2777 31.9077 11.0217 33.8917C11.7657 35.8757 12.8054 37.6499 14.1408 39.2142ZM28.2197 29.8282C25.9686 29.8282 24.0704 29.0556 22.5252 27.5104C20.9799 25.9651 20.2073 24.067 20.2073 21.8159C20.2073 19.5648 20.9799 17.6666 22.5252 16.1214C24.0704 14.5761 25.9686 13.8035 28.2197 13.8035C30.4708 13.8035 32.3689 14.5761 33.9142 16.1214C35.4594 17.6666 36.232 19.5648 36.232 21.8159C36.232 24.067 35.4594 25.9651 33.9142 27.5104C32.3689 29.0556 30.4708 29.8282 28.2197 29.8282ZM28.2197 50.4315C25.0529 50.4315 22.0768 49.8306 19.2916 48.6287C16.5063 47.4269 14.0835 45.7958 12.0232 43.7355C9.96288 41.6751 8.33179 39.2523 7.12993 36.4671C5.92808 33.6818 5.32715 30.7058 5.32715 27.539C5.32715 24.3722 5.92808 21.3962 7.12993 18.6109C8.33179 15.8257 9.96288 13.4029 12.0232 11.3425C14.0835 9.28222 16.5063 7.65113 19.2916 6.44927C22.0768 5.24741 25.0529 4.64648 28.2197 4.64648C31.3865 4.64648 34.3625 5.24741 37.1477 6.44927C39.933 7.65113 42.3558 9.28222 44.4161 11.3425C46.4764 13.4029 48.1075 15.8257 49.3094 18.6109C50.5112 21.3962 51.1122 24.3722 51.1122 27.539C51.1122 30.7058 50.5112 33.6818 49.3094 36.4671C48.1075 39.2523 46.4764 41.6751 44.4161 43.7355C42.3558 45.7958 39.933 47.4269 37.1477 48.6287C34.3625 49.8306 31.3865 50.4315 28.2197 50.4315Z" fill="#171717"/>
</svg>
