<svg width="79" height="51" viewBox="0 0 79 51" fill="none" xmlns="http://www.w3.org/2000/svg">
<g clip-path="url(#clip0_35_24)">
<path fill-rule="evenodd" clip-rule="evenodd" d="M13.2237 50.9996L0.394737 50.6049L0 30.789C0 30.789 47.9877 6.5127 50.408 6.5127L68.408 21.3548L44.3076 33.4338H37.9343V36.906L29.4079 41.5511V33.4338H18.0395V47.7447L13.2237 50.9996Z" fill="url(#paint0_linear_35_24)"/>
<mask id="path-2-outside-1_35_24" maskUnits="userSpaceOnUse" x="-0.62207" y="6.7373" width="78" height="45" fill="black">
<rect fill="white" x="-0.62207" y="6.7373" width="78" height="45"/>
<path d="M0.377946 28.6494V7.7373H14.683V11.6773H4.74221V15.9203H13.7738V19.8603H4.74221V24.7094H14.683V28.6494H0.377946Z"/>
<path d="M17.7597 27.0734V24.7094H27.155C27.7611 24.7094 28.0642 24.4064 28.0642 23.8002V21.6181C28.0642 21.0321 27.8117 20.6988 27.3065 20.6179L21.3966 19.4056C18.972 18.9207 17.7597 17.2942 17.7597 14.5262V12.8289C17.7597 9.43452 19.4569 7.7373 22.8513 7.7373H29.7917L31.8223 9.31329V11.6773H23.0332C22.427 11.6773 22.124 11.9803 22.124 12.5865V14.5565C22.124 15.1222 22.3765 15.4556 22.8817 15.5566L28.7916 16.7386C31.2162 17.2235 32.4285 18.85 32.4285 21.6181V23.5578C32.4285 26.9522 30.7313 28.6494 27.3368 28.6494H19.7903L17.7597 27.0734Z"/>
<path d="M36.4864 28.6494V7.7373H40.8506V28.6494H36.4864Z"/>
<path d="M0.37793 50.6058V31.1389H4.44059V46.9381H12.848V50.6058H0.37793Z"/>
<path d="M15.5523 45.866V35.8787C15.5523 32.7188 17.1322 31.1389 20.292 31.1389H26.7246C29.8844 31.1389 31.4643 32.7188 31.4643 35.8787V45.866C31.4643 49.0259 29.8844 50.6058 26.7246 50.6058H20.292C17.1322 50.6058 15.5523 49.0259 15.5523 45.866ZM19.6149 46.0917C19.6149 46.656 19.8971 46.9381 20.4613 46.9381H26.5553C27.1196 46.9381 27.4017 46.656 27.4017 46.0917V35.653C27.4017 35.0887 27.1196 34.8066 26.5553 34.8066H20.4613C19.8971 34.8066 19.6149 35.0887 19.6149 35.653V46.0917Z"/>
<path d="M35.5272 45.866V35.8787C35.5272 32.7188 37.1071 31.1389 40.267 31.1389H48.4205L50.3108 32.606V34.8066H40.4363C39.872 34.8066 39.5899 35.0887 39.5899 35.653V46.0917C39.5899 46.656 39.872 46.9381 40.4363 46.9381H46.8124V42.424H43.0883V38.7564H50.875V50.6058H40.267C37.1071 50.6058 35.5272 49.0259 35.5272 45.866Z"/>
<path d="M54.9302 50.6058V31.1389H58.9929V50.6058H54.9302Z"/>
<path d="M62.7626 49.1387V46.9381H71.5086C72.0728 46.9381 72.355 46.656 72.355 46.0917V44.0604C72.355 43.5149 72.1199 43.2046 71.6496 43.1294L66.1481 42.0009C63.8911 41.5494 62.7626 40.0354 62.7626 37.4586V35.8787C62.7626 32.7188 64.3425 31.1389 67.5023 31.1389H73.9631L75.8534 32.606V34.8066H67.6716C67.1074 34.8066 66.8252 35.0887 66.8252 35.653V37.4868C66.8252 38.0134 67.0603 38.3238 67.5306 38.4178L73.0321 39.5181C75.2891 39.9695 76.4176 41.4836 76.4176 44.0604V45.866C76.4176 49.0259 74.8377 50.6058 71.6779 50.6058H64.6528L62.7626 49.1387Z"/>
</mask>
<path d="M0.377946 28.6494V7.7373H14.683V11.6773H4.74221V15.9203H13.7738V19.8603H4.74221V24.7094H14.683V28.6494H0.377946Z" fill="#EDEDED"/>
<path d="M17.7597 27.0734V24.7094H27.155C27.7611 24.7094 28.0642 24.4064 28.0642 23.8002V21.6181C28.0642 21.0321 27.8117 20.6988 27.3065 20.6179L21.3966 19.4056C18.972 18.9207 17.7597 17.2942 17.7597 14.5262V12.8289C17.7597 9.43452 19.4569 7.7373 22.8513 7.7373H29.7917L31.8223 9.31329V11.6773H23.0332C22.427 11.6773 22.124 11.9803 22.124 12.5865V14.5565C22.124 15.1222 22.3765 15.4556 22.8817 15.5566L28.7916 16.7386C31.2162 17.2235 32.4285 18.85 32.4285 21.6181V23.5578C32.4285 26.9522 30.7313 28.6494 27.3368 28.6494H19.7903L17.7597 27.0734Z" fill="#EDEDED"/>
<path d="M36.4864 28.6494V7.7373H40.8506V28.6494H36.4864Z" fill="#EDEDED"/>
<path d="M0.37793 50.6058V31.1389H4.44059V46.9381H12.848V50.6058H0.37793Z" fill="#EDEDED"/>
<path d="M15.5523 45.866V35.8787C15.5523 32.7188 17.1322 31.1389 20.292 31.1389H26.7246C29.8844 31.1389 31.4643 32.7188 31.4643 35.8787V45.866C31.4643 49.0259 29.8844 50.6058 26.7246 50.6058H20.292C17.1322 50.6058 15.5523 49.0259 15.5523 45.866ZM19.6149 46.0917C19.6149 46.656 19.8971 46.9381 20.4613 46.9381H26.5553C27.1196 46.9381 27.4017 46.656 27.4017 46.0917V35.653C27.4017 35.0887 27.1196 34.8066 26.5553 34.8066H20.4613C19.8971 34.8066 19.6149 35.0887 19.6149 35.653V46.0917Z" fill="#EDEDED"/>
<path d="M35.5272 45.866V35.8787C35.5272 32.7188 37.1071 31.1389 40.267 31.1389H48.4205L50.3108 32.606V34.8066H40.4363C39.872 34.8066 39.5899 35.0887 39.5899 35.653V46.0917C39.5899 46.656 39.872 46.9381 40.4363 46.9381H46.8124V42.424H43.0883V38.7564H50.875V50.6058H40.267C37.1071 50.6058 35.5272 49.0259 35.5272 45.866Z" fill="#EDEDED"/>
<path d="M54.9302 50.6058V31.1389H58.9929V50.6058H54.9302Z" fill="#EDEDED"/>
<path d="M62.7626 49.1387V46.9381H71.5086C72.0728 46.9381 72.355 46.656 72.355 46.0917V44.0604C72.355 43.5149 72.1199 43.2046 71.6496 43.1294L66.1481 42.0009C63.8911 41.5494 62.7626 40.0354 62.7626 37.4586V35.8787C62.7626 32.7188 64.3425 31.1389 67.5023 31.1389H73.9631L75.8534 32.606V34.8066H67.6716C67.1074 34.8066 66.8252 35.0887 66.8252 35.653V37.4868C66.8252 38.0134 67.0603 38.3238 67.5306 38.4178L73.0321 39.5181C75.2891 39.9695 76.4176 41.4836 76.4176 44.0604V45.866C76.4176 49.0259 74.8377 50.6058 71.6779 50.6058H64.6528L62.7626 49.1387Z" fill="#EDEDED"/>
<path d="M0.377946 28.6494V7.7373H14.683V11.6773H4.74221V15.9203H13.7738V19.8603H4.74221V24.7094H14.683V28.6494H0.377946Z" stroke="#EDEDED" stroke-width="0.789475" mask="url(#path-2-outside-1_35_24)"/>
<path d="M17.7597 27.0734V24.7094H27.155C27.7611 24.7094 28.0642 24.4064 28.0642 23.8002V21.6181C28.0642 21.0321 27.8117 20.6988 27.3065 20.6179L21.3966 19.4056C18.972 18.9207 17.7597 17.2942 17.7597 14.5262V12.8289C17.7597 9.43452 19.4569 7.7373 22.8513 7.7373H29.7917L31.8223 9.31329V11.6773H23.0332C22.427 11.6773 22.124 11.9803 22.124 12.5865V14.5565C22.124 15.1222 22.3765 15.4556 22.8817 15.5566L28.7916 16.7386C31.2162 17.2235 32.4285 18.85 32.4285 21.6181V23.5578C32.4285 26.9522 30.7313 28.6494 27.3368 28.6494H19.7903L17.7597 27.0734Z" stroke="#EDEDED" stroke-width="0.789475" mask="url(#path-2-outside-1_35_24)"/>
<path d="M36.4864 28.6494V7.7373H40.8506V28.6494H36.4864Z" stroke="#EDEDED" stroke-width="0.789475" mask="url(#path-2-outside-1_35_24)"/>
<path d="M0.37793 50.6058V31.1389H4.44059V46.9381H12.848V50.6058H0.37793Z" stroke="#EDEDED" stroke-width="0.789475" mask="url(#path-2-outside-1_35_24)"/>
<path d="M15.5523 45.866V35.8787C15.5523 32.7188 17.1322 31.1389 20.292 31.1389H26.7246C29.8844 31.1389 31.4643 32.7188 31.4643 35.8787V45.866C31.4643 49.0259 29.8844 50.6058 26.7246 50.6058H20.292C17.1322 50.6058 15.5523 49.0259 15.5523 45.866ZM19.6149 46.0917C19.6149 46.656 19.8971 46.9381 20.4613 46.9381H26.5553C27.1196 46.9381 27.4017 46.656 27.4017 46.0917V35.653C27.4017 35.0887 27.1196 34.8066 26.5553 34.8066H20.4613C19.8971 34.8066 19.6149 35.0887 19.6149 35.653V46.0917Z" stroke="#EDEDED" stroke-width="0.789475" mask="url(#path-2-outside-1_35_24)"/>
<path d="M35.5272 45.866V35.8787C35.5272 32.7188 37.1071 31.1389 40.267 31.1389H48.4205L50.3108 32.606V34.8066H40.4363C39.872 34.8066 39.5899 35.0887 39.5899 35.653V46.0917C39.5899 46.656 39.872 46.9381 40.4363 46.9381H46.8124V42.424H43.0883V38.7564H50.875V50.6058H40.267C37.1071 50.6058 35.5272 49.0259 35.5272 45.866Z" stroke="#EDEDED" stroke-width="0.789475" mask="url(#path-2-outside-1_35_24)"/>
<path d="M54.9302 50.6058V31.1389H58.9929V50.6058H54.9302Z" stroke="#EDEDED" stroke-width="0.789475" mask="url(#path-2-outside-1_35_24)"/>
<path d="M62.7626 49.1387V46.9381H71.5086C72.0728 46.9381 72.355 46.656 72.355 46.0917V44.0604C72.355 43.5149 72.1199 43.2046 71.6496 43.1294L66.1481 42.0009C63.8911 41.5494 62.7626 40.0354 62.7626 37.4586V35.8787C62.7626 32.7188 64.3425 31.1389 67.5023 31.1389H73.9631L75.8534 32.606V34.8066H67.6716C67.1074 34.8066 66.8252 35.0887 66.8252 35.653V37.4868C66.8252 38.0134 67.0603 38.3238 67.5306 38.4178L73.0321 39.5181C75.2891 39.9695 76.4176 41.4836 76.4176 44.0604V45.866C76.4176 49.0259 74.8377 50.6058 71.6779 50.6058H64.6528L62.7626 49.1387Z" stroke="#EDEDED" stroke-width="0.789475" mask="url(#path-2-outside-1_35_24)"/>
<path d="M69.2814 19.6197C69.2848 20.6525 68.4823 21.6039 67.5535 21.7855C67.0392 21.887 66.5382 21.9585 66.0504 22C61.3113 22.4002 56.428 22.8529 51.4005 23.358C50.2503 23.4739 49.2281 22.8996 49.1053 21.6766C49.0102 20.7217 49.0482 19.708 49.0292 18.7098C48.9623 15.3619 48.892 11.9765 48.8182 8.55368C48.7888 7.11615 49.5775 6.24948 51.0148 6.25294C56.4539 6.26563 61.8198 6.26736 67.1124 6.25813C68.028 6.25698 68.6616 6.60411 69.0133 7.29952C69.1966 7.66049 69.2872 8.21578 69.2848 8.96539C69.2699 12.6443 69.2687 16.1957 69.2814 19.6197Z" fill="#EDEDED"/>
<path d="M78.0412 26.7733L57.7769 29.1796C57.7657 29.181 57.7543 29.1792 57.7441 29.1744L50.1216 25.4742C50.1104 25.4683 50.1013 25.4591 50.0958 25.4477C50.0903 25.4364 50.0885 25.4235 50.0909 25.4111C50.0932 25.3987 50.0994 25.3873 50.1087 25.3787C50.118 25.3702 50.1298 25.3648 50.1424 25.3634L70.277 23.4623C70.2863 23.4612 70.2958 23.4624 70.3046 23.4658L78.0568 26.6609C78.0687 26.6659 78.0786 26.6747 78.0849 26.686C78.0913 26.6972 78.0938 26.7102 78.092 26.723C78.0902 26.7358 78.0843 26.7477 78.0751 26.7568C78.066 26.7658 78.054 26.7717 78.0412 26.7733Z" fill="#EDEDED"/>
<path fill-rule="evenodd" clip-rule="evenodd" d="M46.0512 7.53016L49.8413 11.9245L52.5748 12.3778L53.9564 11.1862L53.9756 11.1696L55.3572 9.97798L55.3102 7.20756L51.5201 2.81325C55.0483 2.15406 56.7058 2.71508 59.1847 5.10396C61.4446 8.24419 61.5814 10.1402 60.3106 13.7035L67.3193 21.8296L63.4857 22.1959L63.4548 22.1989L59.6213 22.5653L55.5325 17.8246C51.8212 18.5584 49.9658 18.1446 47.1915 15.4481C45.1926 12.6452 44.881 10.9233 46.0512 7.53016Z" fill="black"/>
</g>
<defs>
<linearGradient id="paint0_linear_35_24" x1="69.4343" y1="9.74949" x2="0.394712" y2="50.6048" gradientUnits="userSpaceOnUse">
<stop stop-color="#0060B4"/>
<stop offset="0.525" stop-color="#00E7F4"/>
<stop offset="1" stop-color="#0060B4"/>
</linearGradient>
<clipPath id="clip0_35_24">
<rect width="78.0927" height="51" fill="white"/>
</clipPath>
</defs>
</svg>
