<svg width="214" height="45" viewBox="0 0 214 45" fill="none" xmlns="http://www.w3.org/2000/svg">
<path d="M32.3174 30.7383L44.0059 35.9346C44.0235 35.9428 44.0383 35.9566 44.0479 35.9746C44.0574 35.9929 44.0612 36.0144 44.0586 36.0352C44.0559 36.056 44.047 36.0751 44.0332 36.0899C44.0194 36.1046 44.0017 36.1145 43.9824 36.1172L13.4277 40.0303C13.411 40.0326 13.3942 40.0293 13.3789 40.0215L1.88574 34.0039C1.86882 33.9945 1.85503 33.9794 1.84668 33.961C1.83842 33.9425 1.83537 33.9215 1.83887 33.9014C1.84241 33.8814 1.85239 33.8635 1.86621 33.8496C1.8802 33.8357 1.89805 33.8264 1.91699 33.8242L32.2754 30.7324C32.2895 30.7307 32.3041 30.7328 32.3174 30.7383ZM0.0986328 15.8076C0.432566 16.3582 0.813075 16.9296 1.24219 17.5313C5.7391 21.9022 8.74698 22.5732 14.7627 21.3838L21.1553 28.7969C15.507 29.3338 9.72619 29.9218 3.81348 30.5625C2.07931 30.7509 0.538669 29.817 0.353516 27.8281C0.210124 26.2754 0.266966 24.627 0.238281 23.0039C0.194069 20.6169 0.14485 18.2181 0.0986328 15.8076ZM27.5039 2.7549C28.8844 2.75302 29.8398 3.31737 30.3701 4.44826C30.6465 5.03528 30.7828 5.93827 30.7793 7.15724C30.757 13.0696 30.755 18.7796 30.7734 24.2871L22.5078 14.7041C24.285 9.72086 24.3625 6.74954 21.998 2.75881C23.8391 2.75724 25.6744 2.75834 27.5039 2.7549ZM13.1826 2.75978L14.4023 4.17384L14.4785 8.66506L12.2393 10.5967L12.208 10.6231L9.96875 12.5547L5.53711 11.8203L0 5.39845C0.299805 3.7195 1.42646 2.74142 3.23242 2.74611C6.56741 2.7545 9.88414 2.75729 13.1826 2.75978Z" fill="white"/>
<path d="M57.4923 33V8.15363H74.8848V13.8071H63.7579V17.516H73.8045V23.1695H63.7579V27.3466H74.8848V33H57.4923ZM78.4255 30.8394V27.3466H89.6244C89.8884 27.3466 90.0205 27.2145 90.0205 26.9504V24.5018C90.0205 24.1657 89.8764 23.9737 89.5883 23.9257L82.9266 22.5573C79.9259 21.9812 78.4255 19.9767 78.4255 16.5438V14.4913C78.4255 10.2662 80.538 8.15363 84.7631 8.15363H92.7572L95.5659 10.3142V13.8071H85.0872C84.8231 13.8071 84.6911 13.9391 84.6911 14.2032V16.5078C84.6911 16.8199 84.8351 17.0119 85.1232 17.0839L91.7849 18.3803C94.7857 19.0044 96.2861 21.0209 96.2861 24.4298V26.6624C96.2861 30.8875 94.1735 33 89.9484 33H81.2342L78.4255 30.8394ZM100.816 33V8.15363H107.082V33H100.816ZM112.702 33V8.15363H118.967V27.3466H129.014V33H112.702ZM132.316 26.6624V14.4913C132.316 10.2662 134.428 8.15363 138.653 8.15363H146.719C150.944 8.15363 153.057 10.2662 153.057 14.4913V26.6624C153.057 30.8875 150.944 33 146.719 33H138.653C134.428 33 132.316 30.8875 132.316 26.6624ZM138.581 26.9504C138.581 27.2145 138.713 27.3466 138.977 27.3466H146.395C146.659 27.3466 146.791 27.2145 146.791 26.9504V14.2032C146.791 13.9391 146.659 13.8071 146.395 13.8071H138.977C138.713 13.8071 138.581 13.9391 138.581 14.2032V26.9504ZM157.951 26.6624V14.4913C157.951 10.2662 160.064 8.15363 164.289 8.15363H174.443L177.252 10.3142V13.8071H164.613C164.349 13.8071 164.217 13.9391 164.217 14.2032V26.9504C164.217 27.2145 164.349 27.3466 164.613 27.3466H171.707V23.1695H167.637V17.516H177.972V33H164.289C160.064 33 157.951 30.8875 157.951 26.6624ZM182.856 33V8.15363H189.122V33H182.856ZM193.662 30.8394V27.3466H204.861C205.125 27.3466 205.257 27.2145 205.257 26.9504V24.5018C205.257 24.1657 205.113 23.9737 204.825 23.9257L198.163 22.5573C195.162 21.9812 193.662 19.9767 193.662 16.5438V14.4913C193.662 10.2662 195.775 8.15363 200 8.15363H207.994L210.802 10.3142V13.8071H200.324C200.06 13.8071 199.928 13.9391 199.928 14.2032V16.5078C199.928 16.8199 200.072 17.0119 200.36 17.0839L207.021 18.3803C210.022 19.0044 211.523 21.0209 211.523 24.4298V26.6624C211.523 30.8875 209.41 33 205.185 33H196.471L193.662 30.8394Z" fill="white"/>
</svg>
