<svg width="116" height="76" viewBox="0 0 116 76" fill="none" xmlns="http://www.w3.org/2000/svg">
<path fill-rule="evenodd" clip-rule="evenodd" d="M19.9429 75.4382L0.966576 74.8543L0.38269 45.5433C0.38269 45.5433 71.365 9.63428 74.9449 9.63428L101.57 31.5884L65.9214 49.4553H56.4941V54.5913L43.8822 61.4623V49.4553H27.0663V70.6236L19.9429 75.4382Z" fill="url(#paint0_linear_35_256)"/>
<mask id="path-2-outside-1_35_256" maskUnits="userSpaceOnUse" x="-0.0567627" y="10.4443" width="115" height="66" fill="black">
<rect fill="white" x="-0.0567627" y="10.4443" width="115" height="66"/>
<path d="M0.943262 42.377V11.4443H22.103V17.2722H7.39877V23.5484H20.7581V29.3763H7.39877V36.5491H22.103V42.377H0.943262Z"/>
<path d="M26.6539 40.0458V36.5491H40.5512C41.4478 36.5491 41.8961 36.1008 41.8961 35.2042V31.9764C41.8961 31.1097 41.5225 30.6166 40.7754 30.4971L32.0335 28.7039C28.4471 27.9866 26.6539 25.5807 26.6539 21.4862V18.9758C26.6539 13.9548 29.1644 11.4443 34.1854 11.4443H44.4514L47.455 13.7755V17.2722H34.4543C33.5577 17.2722 33.1094 17.7205 33.1094 18.6171V21.5311C33.1094 22.3679 33.483 22.861 34.2302 23.0105L42.972 24.7588C46.5584 25.4761 48.3516 27.882 48.3516 31.9764V34.8456C48.3516 39.8665 45.8411 42.377 40.8202 42.377H29.6575L26.6539 40.0458Z"/>
<path d="M54.3539 42.377V11.4443H60.8094V42.377H54.3539Z"/>
<path d="M0.943237 74.8543V46.0594H6.95262V69.4292H19.3887V74.8543H0.943237Z"/>
<path d="M23.3888 67.8434V53.0703C23.3888 48.3964 25.7257 46.0594 30.3997 46.0594H39.9145C44.5885 46.0594 46.9255 48.3964 46.9255 53.0703V67.8434C46.9255 72.5174 44.5885 74.8543 39.9145 74.8543H30.3997C25.7257 74.8543 23.3888 72.5174 23.3888 67.8434ZM29.3981 68.1772C29.3981 69.0119 29.8154 69.4292 30.6501 69.4292H39.6642C40.4988 69.4292 40.9161 69.0119 40.9161 68.1772V52.7365C40.9161 51.9019 40.4988 51.4845 39.6642 51.4845H30.6501C29.8154 51.4845 29.3981 51.9019 29.3981 52.7365V68.1772Z"/>
<path d="M52.9352 67.8434V53.0703C52.9352 48.3964 55.2722 46.0594 59.9461 46.0594H72.0067L74.8027 48.2295V51.4845H60.1965C59.3619 51.4845 58.9446 51.9019 58.9446 52.7365V68.1772C58.9446 69.0119 59.3619 69.4292 60.1965 69.4292H69.6279V62.7521H64.1193V57.327H75.6373V74.8543H59.9461C55.2722 74.8543 52.9352 72.5174 52.9352 67.8434Z"/>
<path d="M81.6356 74.8543V46.0594H87.645V74.8543H81.6356Z"/>
<path d="M93.2211 72.6843V69.4292H106.158C106.993 69.4292 107.41 69.0119 107.41 68.1772V65.1726C107.41 64.3657 107.062 63.9067 106.367 63.7954L98.2289 62.1261C94.8903 61.4584 93.2211 59.2188 93.2211 55.4073V53.0703C93.2211 48.3964 95.5581 46.0594 100.232 46.0594H109.789L112.585 48.2295V51.4845H100.482C99.6478 51.4845 99.2305 51.9019 99.2305 52.7365V55.4491C99.2305 56.228 99.5782 56.6871 100.274 56.8262L108.411 58.4537C111.75 59.1214 113.419 61.3611 113.419 65.1726V67.8434C113.419 72.5174 111.082 74.8543 106.408 74.8543H96.0171L93.2211 72.6843Z"/>
</mask>
<path d="M0.943262 42.377V11.4443H22.103V17.2722H7.39877V23.5484H20.7581V29.3763H7.39877V36.5491H22.103V42.377H0.943262Z" fill="#171717"/>
<path d="M26.6539 40.0458V36.5491H40.5512C41.4478 36.5491 41.8961 36.1008 41.8961 35.2042V31.9764C41.8961 31.1097 41.5225 30.6166 40.7754 30.4971L32.0335 28.7039C28.4471 27.9866 26.6539 25.5807 26.6539 21.4862V18.9758C26.6539 13.9548 29.1644 11.4443 34.1854 11.4443H44.4514L47.455 13.7755V17.2722H34.4543C33.5577 17.2722 33.1094 17.7205 33.1094 18.6171V21.5311C33.1094 22.3679 33.483 22.861 34.2302 23.0105L42.972 24.7588C46.5584 25.4761 48.3516 27.882 48.3516 31.9764V34.8456C48.3516 39.8665 45.8411 42.377 40.8202 42.377H29.6575L26.6539 40.0458Z" fill="#171717"/>
<path d="M54.3539 42.377V11.4443H60.8094V42.377H54.3539Z" fill="#171717"/>
<path d="M0.943237 74.8543V46.0594H6.95262V69.4292H19.3887V74.8543H0.943237Z" fill="#171717"/>
<path d="M23.3888 67.8434V53.0703C23.3888 48.3964 25.7257 46.0594 30.3997 46.0594H39.9145C44.5885 46.0594 46.9255 48.3964 46.9255 53.0703V67.8434C46.9255 72.5174 44.5885 74.8543 39.9145 74.8543H30.3997C25.7257 74.8543 23.3888 72.5174 23.3888 67.8434ZM29.3981 68.1772C29.3981 69.0119 29.8154 69.4292 30.6501 69.4292H39.6642C40.4988 69.4292 40.9161 69.0119 40.9161 68.1772V52.7365C40.9161 51.9019 40.4988 51.4845 39.6642 51.4845H30.6501C29.8154 51.4845 29.3981 51.9019 29.3981 52.7365V68.1772Z" fill="#171717"/>
<path d="M52.9352 67.8434V53.0703C52.9352 48.3964 55.2722 46.0594 59.9461 46.0594H72.0067L74.8027 48.2295V51.4845H60.1965C59.3619 51.4845 58.9446 51.9019 58.9446 52.7365V68.1772C58.9446 69.0119 59.3619 69.4292 60.1965 69.4292H69.6279V62.7521H64.1193V57.327H75.6373V74.8543H59.9461C55.2722 74.8543 52.9352 72.5174 52.9352 67.8434Z" fill="#171717"/>
<path d="M81.6356 74.8543V46.0594H87.645V74.8543H81.6356Z" fill="#171717"/>
<path d="M93.2211 72.6843V69.4292H106.158C106.993 69.4292 107.41 69.0119 107.41 68.1772V65.1726C107.41 64.3657 107.062 63.9067 106.367 63.7954L98.2289 62.1261C94.8903 61.4584 93.2211 59.2188 93.2211 55.4073V53.0703C93.2211 48.3964 95.5581 46.0594 100.232 46.0594H109.789L112.585 48.2295V51.4845H100.482C99.6478 51.4845 99.2305 51.9019 99.2305 52.7365V55.4491C99.2305 56.228 99.5782 56.6871 100.274 56.8262L108.411 58.4537C111.75 59.1214 113.419 61.3611 113.419 65.1726V67.8434C113.419 72.5174 111.082 74.8543 106.408 74.8543H96.0171L93.2211 72.6843Z" fill="#171717"/>
<path d="M0.943262 42.377V11.4443H22.103V17.2722H7.39877V23.5484H20.7581V29.3763H7.39877V36.5491H22.103V42.377H0.943262Z" stroke="#171717" stroke-width="1.56309" mask="url(#path-2-outside-1_35_256)"/>
<path d="M26.6539 40.0458V36.5491H40.5512C41.4478 36.5491 41.8961 36.1008 41.8961 35.2042V31.9764C41.8961 31.1097 41.5225 30.6166 40.7754 30.4971L32.0335 28.7039C28.4471 27.9866 26.6539 25.5807 26.6539 21.4862V18.9758C26.6539 13.9548 29.1644 11.4443 34.1854 11.4443H44.4514L47.455 13.7755V17.2722H34.4543C33.5577 17.2722 33.1094 17.7205 33.1094 18.6171V21.5311C33.1094 22.3679 33.483 22.861 34.2302 23.0105L42.972 24.7588C46.5584 25.4761 48.3516 27.882 48.3516 31.9764V34.8456C48.3516 39.8665 45.8411 42.377 40.8202 42.377H29.6575L26.6539 40.0458Z" stroke="#171717" stroke-width="1.56309" mask="url(#path-2-outside-1_35_256)"/>
<path d="M54.3539 42.377V11.4443H60.8094V42.377H54.3539Z" stroke="#171717" stroke-width="1.56309" mask="url(#path-2-outside-1_35_256)"/>
<path d="M0.943237 74.8543V46.0594H6.95262V69.4292H19.3887V74.8543H0.943237Z" stroke="#171717" stroke-width="1.56309" mask="url(#path-2-outside-1_35_256)"/>
<path d="M23.3888 67.8434V53.0703C23.3888 48.3964 25.7257 46.0594 30.3997 46.0594H39.9145C44.5885 46.0594 46.9255 48.3964 46.9255 53.0703V67.8434C46.9255 72.5174 44.5885 74.8543 39.9145 74.8543H30.3997C25.7257 74.8543 23.3888 72.5174 23.3888 67.8434ZM29.3981 68.1772C29.3981 69.0119 29.8154 69.4292 30.6501 69.4292H39.6642C40.4988 69.4292 40.9161 69.0119 40.9161 68.1772V52.7365C40.9161 51.9019 40.4988 51.4845 39.6642 51.4845H30.6501C29.8154 51.4845 29.3981 51.9019 29.3981 52.7365V68.1772Z" stroke="#171717" stroke-width="1.56309" mask="url(#path-2-outside-1_35_256)"/>
<path d="M52.9352 67.8434V53.0703C52.9352 48.3964 55.2722 46.0594 59.9461 46.0594H72.0067L74.8027 48.2295V51.4845H60.1965C59.3619 51.4845 58.9446 51.9019 58.9446 52.7365V68.1772C58.9446 69.0119 59.3619 69.4292 60.1965 69.4292H69.6279V62.7521H64.1193V57.327H75.6373V74.8543H59.9461C55.2722 74.8543 52.9352 72.5174 52.9352 67.8434Z" stroke="#171717" stroke-width="1.56309" mask="url(#path-2-outside-1_35_256)"/>
<path d="M81.6356 74.8543V46.0594H87.645V74.8543H81.6356Z" stroke="#171717" stroke-width="1.56309" mask="url(#path-2-outside-1_35_256)"/>
<path d="M93.2211 72.6843V69.4292H106.158C106.993 69.4292 107.41 69.0119 107.41 68.1772V65.1726C107.41 64.3657 107.062 63.9067 106.367 63.7954L98.2289 62.1261C94.8903 61.4584 93.2211 59.2188 93.2211 55.4073V53.0703C93.2211 48.3964 95.5581 46.0594 100.232 46.0594H109.789L112.585 48.2295V51.4845H100.482C99.6478 51.4845 99.2305 51.9019 99.2305 52.7365V55.4491C99.2305 56.228 99.5782 56.6871 100.274 56.8262L108.411 58.4537C111.75 59.1214 113.419 61.3611 113.419 65.1726V67.8434C113.419 72.5174 111.082 74.8543 106.408 74.8543H96.0171L93.2211 72.6843Z" stroke="#171717" stroke-width="1.56309" mask="url(#path-2-outside-1_35_256)"/>
<path d="M102.866 29.0214C102.871 30.549 101.684 31.9563 100.31 32.225C99.5492 32.3751 98.8081 32.4808 98.0867 32.5423C91.0766 33.1342 83.8533 33.8037 76.4168 34.5509C74.7155 34.7224 73.2035 33.8728 73.0218 32.0638C72.8811 30.6513 72.9374 29.1519 72.9092 27.6754C72.8103 22.7233 72.7063 17.7157 72.5971 12.6527C72.5536 10.5264 73.7203 9.24441 75.8463 9.24953C83.8917 9.26829 91.8288 9.27085 99.6575 9.2572C101.012 9.2555 101.949 9.76896 102.469 10.7976C102.74 11.3315 102.874 12.1529 102.871 13.2617C102.849 18.7034 102.847 23.9566 102.866 29.0214Z" fill="#171717"/>
<path d="M115.823 39.6027L85.8483 43.162C85.8317 43.1642 85.8149 43.1615 85.7997 43.1543L74.5248 37.681C74.5082 37.6725 74.4948 37.6587 74.4866 37.6419C74.4784 37.6251 74.4758 37.6061 74.4793 37.5878C74.4827 37.5694 74.492 37.5526 74.5057 37.5399C74.5194 37.5272 74.5369 37.5193 74.5555 37.5173L104.338 34.7052C104.352 34.7036 104.366 34.7053 104.379 34.7103L115.846 39.4364C115.863 39.4439 115.878 39.4569 115.887 39.4736C115.897 39.4902 115.901 39.5094 115.898 39.5283C115.895 39.5473 115.886 39.5648 115.873 39.5782C115.859 39.5917 115.842 39.6003 115.823 39.6027Z" fill="#171717"/>
<path fill-rule="evenodd" clip-rule="evenodd" d="M68.5008 11.139L74.107 17.6389L78.1503 18.3095L80.194 16.5469L80.2223 16.5224L82.266 14.7597L82.1965 10.6618L76.5903 4.16185C81.8091 3.18679 84.2609 4.01663 87.9276 7.55022C91.2704 12.1952 91.4727 14.9998 89.593 20.2705L99.96 32.2903L94.2895 32.8322L94.2438 32.8366L88.5734 33.3785L82.5253 26.3663C77.0357 27.4517 74.2912 26.8397 70.1875 22.8509C67.2307 18.7051 66.7699 16.1581 68.5008 11.139Z" fill="#D9D9D9"/>
<defs>
<linearGradient id="paint0_linear_35_256" x1="103.088" y1="14.4221" x2="0.966524" y2="74.8543" gradientUnits="userSpaceOnUse">
<stop stop-color="#0060B4"/>
<stop offset="0.525" stop-color="#00E7F4"/>
<stop offset="1" stop-color="#0060B4"/>
</linearGradient>
</defs>
</svg>
