<svg width="56" height="42" viewBox="0 0 56 42" fill="none" xmlns="http://www.w3.org/2000/svg">
<g clip-path="url(#clip0_187_3469)">
<path d="M51.5651 6.723C51.5668 7.24243 51.1632 7.72096 50.696 7.81232C50.4374 7.86336 50.1854 7.89933 49.94 7.92021C47.5564 8.12148 45.1003 8.34915 42.5717 8.60321C41.9932 8.6615 41.479 8.37264 41.4173 7.75751C41.3694 7.27723 41.3886 6.76737 41.379 6.26534C41.3454 4.58148 41.31 2.87876 41.2729 1.15719C41.2581 0.434168 41.6548 -0.00173494 42.3777 5.19044e-06C45.1133 0.00638567 47.8122 0.00725571 50.4742 0.00261536C50.9347 0.00203532 51.2534 0.176628 51.4302 0.526395C51.5225 0.707948 51.568 0.987239 51.5668 1.36427C51.5593 3.21461 51.5587 5.00085 51.5651 6.723Z" fill="#0060B4"/>
<path d="M8.95357 37.5954C9.16177 37.5954 9.36969 37.5966 9.57731 37.5989C9.83829 37.6015 10.0427 37.3266 10.2037 37.156C10.2315 37.1264 10.2454 37.0914 10.2454 37.0508V27.2434C10.2454 27.2325 10.2497 27.2221 10.2574 27.2145C10.2651 27.2068 10.2755 27.2025 10.2863 27.2025H18.3759C18.3858 27.2025 18.3953 27.2065 18.4023 27.2137C18.4093 27.2209 18.4133 27.2306 18.4133 27.2408C18.4144 30.083 18.415 32.9034 18.415 35.7022C18.415 36.3506 18.3402 36.9684 18.1906 37.5554C17.5172 40.196 15.4024 41.0818 12.85 41.08C10.3521 41.0783 7.8067 41.0763 5.21371 41.0739C4.8263 41.0739 4.33681 41.0136 3.74525 40.893C1.79659 40.4956 0.60826 39.3321 0.180251 37.4023C0.05498 36.8385 0.00017399 36.1824 0.00017399 35.5716C-0.000405968 25.2741 0.000463946 15.2472 0.00278378 5.49088C0.00365372 3.75858 0.429923 1.95319 1.93143 0.946526C2.94578 0.266135 4.17065 0.0668901 5.39291 0.0625398C8.9353 0.051519 11.5161 0.0520991 13.1354 0.06428C13.7124 0.0683403 14.3138 0.145486 14.9396 0.295717C17.3406 0.872571 18.4107 2.80586 18.4115 5.1646C18.4144 11.8513 18.4153 18.5372 18.4141 25.2222C18.4141 25.2273 18.4121 25.2322 18.4085 25.2358C18.4049 25.2393 18.4001 25.2414 18.395 25.2414H8.86222C8.81235 25.2414 8.76972 25.259 8.73434 25.2944L8.33678 25.6903C8.32658 25.7003 8.31847 25.7121 8.31294 25.7251C8.30742 25.7381 8.30458 25.752 8.30459 25.766V37.0334C8.30459 37.0827 8.3217 37.125 8.35592 37.1604C8.51164 37.3231 8.70912 37.5963 8.95357 37.5954ZM9.70258 20.744C9.72321 20.744 9.74361 20.7398 9.76259 20.7317C9.78157 20.7236 9.79873 20.7118 9.81307 20.697L10.2019 20.2933C10.2296 20.2648 10.2451 20.2268 10.2454 20.1871V4.49726C10.2454 4.45814 10.2305 4.4205 10.2037 4.39198L9.82872 3.99349C9.81434 3.97814 9.79696 3.96589 9.77766 3.95751C9.75836 3.94913 9.73755 3.94479 9.7165 3.94477H8.85005C8.82969 3.94469 8.80952 3.94865 8.79071 3.95642C8.7719 3.96418 8.75481 3.9756 8.74043 3.99001L8.34896 4.38502C8.32039 4.41399 8.30444 4.45309 8.30459 4.49378V20.1906C8.30467 20.2314 8.32094 20.2706 8.34983 20.2994L8.75435 20.704C8.76873 20.7184 8.78582 20.7298 8.80463 20.7376C8.82344 20.7453 8.84361 20.7493 8.86396 20.7492L9.70258 20.744Z" fill="white"/>
<path d="M30.6624 3.93891H29.8499C29.8036 3.93891 29.7592 3.95703 29.7264 3.98937L29.3236 4.39482C29.301 4.41802 29.2896 4.44558 29.2896 4.47748V20.217C29.2896 20.2489 29.3012 20.2761 29.3244 20.2987L29.7298 20.7059C29.7658 20.7413 29.809 20.759 29.8595 20.759H39.3835C39.3905 20.759 39.3971 20.7617 39.402 20.7664C39.4069 20.7711 39.4096 20.7775 39.4096 20.7842C39.4085 25.808 39.407 30.8396 39.4053 35.879C39.4053 36.2711 39.3432 36.7589 39.2191 37.3424C38.6267 40.1284 36.4684 41.0733 33.8359 41.0724C31.4181 41.0724 28.9092 41.0707 26.3092 41.0672C24.3232 41.0646 22.3223 40.3598 21.4933 38.4065C21.1662 37.6357 21.0015 36.805 20.9991 35.9147C20.9922 33.0527 20.9904 30.1473 20.9939 27.1984C20.9939 27.185 21.0006 27.1783 21.0139 27.1783H29.2679C29.2737 27.1783 29.2792 27.1806 29.2833 27.1847C29.2874 27.1888 29.2896 27.1943 29.2896 27.2001V37.0136C29.2896 37.0576 29.3033 37.0971 29.3305 37.1319C29.4819 37.3268 29.6785 37.5756 29.9447 37.5869C30.1839 37.5974 30.6511 37.6522 30.8477 37.4956C31.02 37.3572 31.2331 37.1693 31.2322 36.9344C31.2299 33.2169 31.2293 29.5084 31.2305 25.8089C31.2305 25.7689 31.2225 25.7294 31.2071 25.6926C31.1918 25.6559 31.1692 25.6226 31.1409 25.5948L30.7903 25.2485C30.763 25.2217 30.7264 25.2067 30.6885 25.2068H21.0157C21.0097 25.2068 21.0039 25.2044 20.9997 25.2001C20.9954 25.1959 20.9931 25.1902 20.9931 25.1842C20.9936 18.8037 20.9954 12.172 20.9983 5.28925C20.9991 3.89018 21.3576 2.40324 22.3458 1.41137C23.4245 0.329009 24.9861 0.0531981 26.4493 0.0523281C29.0481 0.0500079 31.5155 0.0502978 33.8516 0.0531981C35.1287 0.0549382 36.524 0.264624 37.5862 1.03115C39.0747 2.10481 39.4079 3.84581 39.4079 5.61639C39.4079 9.99282 39.4079 14.3643 39.4079 18.7309C39.4079 18.7484 39.4009 18.7652 39.3885 18.7776C39.3761 18.79 39.3593 18.797 39.3418 18.797L31.2653 18.7979C31.2421 18.7979 31.2305 18.786 31.2305 18.7622V4.50967C31.2305 4.48131 31.2249 4.45324 31.214 4.4271C31.2031 4.40096 31.1871 4.37727 31.167 4.35741L30.8016 3.99633C30.7627 3.95863 30.7163 3.93949 30.6624 3.93891Z" fill="white"/>
<path d="M55.9745 10.3198L45.7823 11.5301C45.7767 11.5308 45.771 11.5299 45.7658 11.5274L41.932 9.66638C41.9263 9.66346 41.9218 9.65879 41.919 9.65308C41.9162 9.64736 41.9154 9.6409 41.9165 9.63466C41.9177 9.62841 41.9208 9.6227 41.9255 9.61839C41.9302 9.61407 41.9361 9.61137 41.9424 9.61069L52.0694 8.65449C52.0741 8.65395 52.0789 8.65454 52.0833 8.65623L55.9824 10.2632C55.9883 10.2658 55.9933 10.2702 55.9965 10.2759C55.9997 10.2815 56.0009 10.2881 56.0001 10.2945C55.9992 10.3009 55.9962 10.3069 55.9916 10.3115C55.9869 10.316 55.981 10.319 55.9745 10.3198Z" fill="#0060B4"/>
<path d="M50.1926 12.7939H42.003C41.99 12.7939 41.9795 12.8045 41.9795 12.8174V41.0476C41.9795 41.0605 41.99 41.0711 42.003 41.0711H50.1926C50.2055 41.0711 50.2161 41.0605 50.2161 41.0476V12.8174C50.2161 12.8045 50.2055 12.7939 50.1926 12.7939Z" fill="white"/>
</g>
<defs>
<clipPath id="clip0_187_3469">
<rect width="56" height="41.0805" fill="white"/>
</clipPath>
</defs>
</svg>
