<svg width="96" height="71" viewBox="0 0 96 71" fill="none" xmlns="http://www.w3.org/2000/svg">
<path d="M87.9589 11.8494C87.9619 12.7355 87.2733 13.5518 86.4764 13.7076C86.0352 13.7947 85.6054 13.856 85.1869 13.8916C81.1209 14.235 76.9312 14.6233 72.6179 15.0567C71.6311 15.1561 70.7541 14.6634 70.6487 13.6141C70.5671 12.7948 70.5998 11.9251 70.5835 11.0688C70.5261 8.19643 70.4657 5.29194 70.4024 2.35529C70.3772 1.12195 71.0539 0.378388 72.287 0.381357C76.9535 0.39224 81.5572 0.393724 86.098 0.385809C86.8835 0.38482 87.4271 0.68264 87.7289 1.27927C87.8862 1.58897 87.9638 2.06538 87.9619 2.70851C87.949 5.86482 87.948 8.91179 87.9589 11.8494Z" fill="#0060B4"/>
<path d="M15.273 64.512C15.6281 64.512 15.9828 64.514 16.337 64.518C16.7822 64.5224 17.1309 64.0534 17.4054 63.7626C17.4529 63.7121 17.4766 63.6522 17.4766 63.583V46.8536C17.4766 46.8351 17.484 46.8173 17.4971 46.8042C17.5101 46.7911 17.5279 46.7838 17.5464 46.7838H31.3455C31.3625 46.7838 31.3787 46.7907 31.3907 46.8029C31.4026 46.8152 31.4093 46.8318 31.4093 46.8491C31.4113 51.6973 31.4123 56.5085 31.4123 61.2825C31.4123 62.3887 31.2847 63.4425 31.0295 64.4438C29.8809 68.9482 26.2734 70.4591 21.9196 70.4561C17.6587 70.4531 13.3167 70.4497 8.89354 70.4457C8.23269 70.4457 7.39773 70.3428 6.38865 70.137C3.06463 69.4592 1.03757 67.4744 0.307472 64.1826C0.0937849 63.2208 0.000296792 62.1018 0.000296792 61.0599C-0.000692501 43.4944 0.000791398 26.3905 0.00474857 9.74815C0.00623251 6.79319 0.733363 3.71357 3.29464 1.9964C5.02491 0.835785 7.1143 0.495913 9.19923 0.488492C15.2418 0.469693 19.6442 0.470682 22.4063 0.491461C23.3906 0.498387 24.4165 0.629982 25.484 0.886246C29.5796 1.87024 31.4049 5.16804 31.4064 9.19159C31.4113 20.5978 31.4128 32.0026 31.4108 43.4059C31.4108 43.4145 31.4074 43.4228 31.4013 43.4289C31.3951 43.4351 31.3868 43.4385 31.3782 43.4385H15.1172C15.0321 43.4385 14.9594 43.4687 14.899 43.529L14.2209 44.2043C14.2035 44.2213 14.1896 44.2415 14.1802 44.2637C14.1708 44.2858 14.1659 44.3096 14.166 44.3335V63.5533C14.166 63.6374 14.1952 63.7096 14.2535 63.77C14.5192 64.0475 14.856 64.5135 15.273 64.512ZM16.5507 35.7669C16.5858 35.7668 16.6207 35.7597 16.653 35.746C16.6854 35.7322 16.7147 35.7121 16.7391 35.6868L17.4024 34.9981C17.4496 34.9496 17.4761 34.8847 17.4766 34.817V8.05324C17.4766 7.9865 17.4511 7.9223 17.4054 7.87366L16.7658 7.19391C16.7413 7.16771 16.7117 7.14682 16.6787 7.13253C16.6458 7.11823 16.6103 7.11084 16.5744 7.1108H15.0964C15.0617 7.11067 15.0273 7.11742 14.9952 7.13066C14.9631 7.14391 14.9339 7.16339 14.9094 7.18798L14.2417 7.86178C14.1929 7.91119 14.1657 7.97789 14.166 8.0473V34.823C14.1661 34.8926 14.1939 34.9593 14.2431 35.0085L14.9332 35.6986C14.9577 35.7232 14.9868 35.7427 15.0189 35.7559C15.051 35.7692 15.0854 35.7759 15.1201 35.7758L16.5507 35.7669Z" fill="#171717"/>
<path d="M52.3044 7.10112H50.9184C50.8395 7.10112 50.7638 7.13203 50.7077 7.1872L50.0206 7.87881C49.9821 7.91839 49.9628 7.96539 49.9628 8.01981V34.8682C49.9628 34.9226 49.9825 34.9691 50.0221 35.0077L50.7136 35.7023C50.775 35.7626 50.8487 35.7928 50.9347 35.7928H67.1809C67.1927 35.7928 67.204 35.7974 67.2124 35.8054C67.2207 35.8135 67.2254 35.8245 67.2254 35.8359C67.2234 44.4054 67.221 52.9883 67.218 61.5845C67.218 62.2534 67.1121 63.0855 66.9004 64.0808C65.8899 68.8331 62.2082 70.4449 57.7178 70.4434C53.5935 70.4434 49.3138 70.4405 44.8788 70.4345C41.491 70.4301 38.0779 69.2279 36.6637 65.896C36.1057 64.581 35.8248 63.1641 35.8208 61.6453C35.809 56.7635 35.806 51.8074 35.8119 46.7771C35.8119 46.7543 35.8233 46.7429 35.8461 46.7429H49.9257C49.9355 46.7429 49.9449 46.7468 49.9519 46.7538C49.9589 46.7608 49.9628 46.7702 49.9628 46.78V63.5198C49.9628 63.595 49.986 63.6623 50.0325 63.7217C50.2907 64.0541 50.6261 64.4786 51.0802 64.4979C51.4883 64.5157 52.2851 64.6092 52.6205 64.3421C52.9143 64.1061 53.2779 63.7855 53.2764 63.3848C53.2724 57.0435 53.2715 50.7175 53.2734 44.4069C53.2734 44.3387 53.2599 44.2713 53.2336 44.2086C53.2074 44.1459 53.169 44.0892 53.1206 44.0418L52.5226 43.4511C52.476 43.4054 52.4136 43.3798 52.3489 43.3798H35.849C35.8388 43.3798 35.829 43.3758 35.8217 43.3685C35.8145 43.3613 35.8104 43.3515 35.8104 43.3412C35.8114 32.4574 35.8144 21.1452 35.8193 9.40453C35.8208 7.018 36.4322 4.48158 38.118 2.78964C39.9581 0.94335 42.6217 0.472873 45.1177 0.471389C49.5507 0.467431 53.7597 0.467925 57.7445 0.472873C59.923 0.475841 62.3032 0.833523 64.1151 2.14106C66.6541 3.97251 67.2225 6.94231 67.2225 9.96257C67.2225 17.4279 67.2225 24.8848 67.2225 32.3333C67.2225 32.3632 67.2106 32.3919 67.1894 32.413C67.1683 32.4342 67.1396 32.4461 67.1097 32.4461L53.3328 32.4475C53.2932 32.4475 53.2734 32.4273 53.2734 32.3867V8.07472C53.2735 8.02634 53.2639 7.97846 53.2453 7.93387C53.2267 7.88928 53.1994 7.84887 53.1651 7.81499L52.5419 7.19907C52.4756 7.13476 52.3964 7.1021 52.3044 7.10112Z" fill="#171717"/>
<path d="M95.4807 17.987L78.0949 20.0515C78.0853 20.0527 78.0755 20.0512 78.0667 20.047L71.527 16.8724C71.5174 16.8674 71.5096 16.8595 71.5049 16.8497C71.5001 16.84 71.4986 16.829 71.5006 16.8183C71.5026 16.8076 71.508 16.7979 71.516 16.7905C71.5239 16.7832 71.534 16.7786 71.5448 16.7774L88.8194 15.1463C88.8274 15.1454 88.8355 15.1464 88.8431 15.1493L95.4941 17.8905C95.5043 17.8949 95.5128 17.9025 95.5182 17.9121C95.5237 17.9217 95.5258 17.9329 95.5243 17.9439C95.5228 17.9548 95.5177 17.965 95.5098 17.9728C95.5019 17.9806 95.4917 17.9856 95.4807 17.987Z" fill="#0060B4"/>
<path d="M85.6177 22.2056H71.6479C71.6257 22.2056 71.6078 22.2235 71.6078 22.2456V70.4006C71.6078 70.4227 71.6257 70.4407 71.6479 70.4407H85.6177C85.6398 70.4407 85.6577 70.4227 85.6577 70.4006V22.2456C85.6577 22.2235 85.6398 22.2056 85.6177 22.2056Z" fill="#171717"/>
</svg>
