<svg width="200" height="166" viewBox="0 0 200 166" fill="none" xmlns="http://www.w3.org/2000/svg">
<path d="M150.086 111.812C150.106 117.662 145.56 123.052 140.298 124.081C137.385 124.656 134.546 125.061 131.783 125.296C104.936 127.563 77.2726 130.127 48.7924 132.989C42.2766 133.645 36.4859 130.392 35.7902 123.464C35.2513 118.054 35.4668 112.312 35.3591 106.657C34.9802 87.6916 34.5817 68.5137 34.1637 49.1234C33.9971 40.9799 38.4651 36.0703 46.6074 36.0899C77.4195 36.1618 107.817 36.1716 137.799 36.1193C142.986 36.1128 146.575 38.0792 148.568 42.0187C149.606 44.0636 150.119 47.2092 150.106 51.4558C150.021 72.2964 150.015 92.4151 150.086 111.812Z" fill="#171717"/>
<path d="M199.711 152.337L84.915 165.968C84.8515 165.977 84.7868 165.966 84.7289 165.939L41.5481 144.977C41.4846 144.944 41.4333 144.892 41.4019 144.828C41.3705 144.763 41.3607 144.69 41.3739 144.62C41.3871 144.55 41.4226 144.485 41.4751 144.437C41.5277 144.388 41.5945 144.358 41.6657 144.35L155.727 133.58C155.78 133.574 155.834 133.581 155.883 133.6L199.799 151.7C199.866 151.729 199.922 151.779 199.958 151.842C199.994 151.906 200.009 151.98 199.998 152.052C199.988 152.125 199.955 152.192 199.903 152.243C199.851 152.295 199.783 152.328 199.711 152.337Z" fill="#171717"/>
<path fill-rule="evenodd" clip-rule="evenodd" d="M18.4798 43.3288L39.9504 68.2222L55.4353 70.7904L63.2621 64.0398L63.3708 63.9461L71.1976 57.1955L70.9313 41.5013L49.4608 16.6078C69.4479 12.8735 78.8376 16.0517 92.8802 29.5845C105.682 47.3737 106.457 58.1147 99.2583 78.3006L138.962 124.334C133.657 125.323 127.838 125.878 117.192 126.567L95.3534 128.502L72.1908 101.646C51.1665 105.803 40.6558 103.459 24.9395 88.1831C13.6156 72.3054 11.8508 62.5508 18.4798 43.3288Z" fill="#D9D9D9"/>
</svg>
