<svg width="136" height="112" viewBox="0 0 136 112" fill="none" xmlns="http://www.w3.org/2000/svg">
<path d="M101.897 75.2219C101.91 79.1814 98.8333 82.8292 95.2722 83.5256C93.3005 83.9147 91.3796 84.1889 89.5095 84.348C71.3395 85.8823 52.6169 87.6178 33.3417 89.5545C28.9318 89.9988 25.0127 87.7969 24.5418 83.1078C24.1771 79.4467 24.323 75.5602 24.2501 71.7333C23.9936 58.8975 23.724 45.9179 23.441 32.7947C23.3283 27.2832 26.3522 23.9604 31.8629 23.9737C52.7164 24.0223 73.2892 24.0289 93.5812 23.9936C97.0914 23.9891 99.5207 25.32 100.869 27.9863C101.572 29.3702 101.919 31.4992 101.91 34.3732C101.853 48.478 101.848 62.0943 101.897 75.2219Z" fill="#171717"/>
<path d="M135.482 102.648L57.7892 111.874C57.7462 111.88 57.7024 111.873 57.6632 111.854L28.4387 97.6676C28.3957 97.6453 28.361 97.6097 28.3397 97.5662C28.3185 97.5226 28.3118 97.4734 28.3208 97.4257C28.3297 97.3781 28.3537 97.3346 28.3893 97.3017C28.4249 97.2688 28.4701 97.2483 28.5183 97.2431L105.714 89.9541C105.75 89.95 105.787 89.9545 105.82 89.9674L135.542 102.217C135.588 102.237 135.626 102.271 135.65 102.314C135.674 102.357 135.684 102.407 135.677 102.456C135.67 102.505 135.648 102.55 135.612 102.585C135.577 102.62 135.532 102.642 135.482 102.648Z" fill="#171717"/>
<path fill-rule="evenodd" clip-rule="evenodd" d="M12.8279 28.8719L27.359 45.7196L37.8392 47.4578L43.1363 42.889L43.2099 42.8256L48.507 38.2568L48.3268 27.635L33.7956 10.7873C47.3228 8.2599 53.6777 10.4109 63.1816 19.5698C71.8462 31.6095 72.3706 38.8789 67.4984 52.5406L94.3695 83.6957C90.7789 84.3652 86.8407 84.7411 79.6357 85.2073L64.8556 86.5165L49.1792 68.3409C34.9501 71.1541 27.8364 69.5678 17.1998 59.2291C9.53578 48.4831 8.34139 41.8812 12.8279 28.8719Z" fill="#D9D9D9"/>
</svg>
