<svg width="34" height="34" viewBox="0 0 34 34" fill="none" xmlns="http://www.w3.org/2000/svg">
<path d="M13.1034 31.1663L12.5367 26.633C12.2298 26.515 11.9405 26.3733 11.669 26.208C11.3975 26.0427 11.1319 25.8656 10.8721 25.6768L6.65755 27.4476L2.76172 20.7184L6.40964 17.9559C6.38602 17.7906 6.37422 17.6313 6.37422 17.4778V16.5215C6.37422 16.3681 6.38602 16.2087 6.40964 16.0434L2.76172 13.2809L6.65755 6.55176L10.8721 8.32259C11.1319 8.1337 11.4034 7.95662 11.6867 7.79134C11.9701 7.62606 12.2534 7.4844 12.5367 7.36634L13.1034 2.83301H20.8951L21.4617 7.36634C21.7687 7.4844 22.0579 7.62606 22.3294 7.79134C22.601 7.95662 22.8666 8.1337 23.1263 8.32259L27.3409 6.55176L31.2367 13.2809L27.5888 16.0434C27.6124 16.2087 27.6242 16.3681 27.6242 16.5215V17.4778C27.6242 17.6313 27.6006 17.7906 27.5534 17.9559L31.2013 20.7184L27.3055 27.4476L23.1263 25.6768C22.8666 25.8656 22.5951 26.0427 22.3117 26.208C22.0284 26.3733 21.7451 26.515 21.4617 26.633L20.8951 31.1663H13.1034ZM15.5826 28.333H18.3805L18.8763 24.5788C19.6082 24.39 20.2871 24.1125 20.9128 23.7465C21.5385 23.3806 22.111 22.9379 22.6305 22.4184L26.1367 23.8705L27.518 21.4622L24.4721 19.1601C24.5902 18.8295 24.6728 18.4813 24.7201 18.1153C24.7673 17.7493 24.7909 17.3775 24.7909 16.9997C24.7909 16.6219 24.7673 16.25 24.7201 15.8841C24.6728 15.5181 24.5902 15.1698 24.4721 14.8393L27.518 12.5372L26.1367 10.1288L22.6305 11.6163C22.111 11.0733 21.5385 10.6188 20.9128 10.2528C20.2871 9.88683 19.6082 9.6094 18.8763 9.42051L18.4159 5.66634H15.618L15.1221 9.42051C14.3902 9.6094 13.7114 9.88683 13.0857 10.2528C12.46 10.6188 11.8874 11.0615 11.368 11.5809L7.86172 10.1288L6.48047 12.5372L9.5263 14.8038C9.40825 15.158 9.32561 15.5122 9.27839 15.8663C9.23116 16.2205 9.20755 16.5983 9.20755 16.9997C9.20755 17.3775 9.23116 17.7434 9.27839 18.0976C9.32561 18.4518 9.40825 18.8059 9.5263 19.1601L6.48047 21.4622L7.86172 23.8705L11.368 22.383C11.8874 22.9261 12.46 23.3806 13.0857 23.7465C13.7114 24.1125 14.3902 24.39 15.1221 24.5788L15.5826 28.333ZM17.0701 21.958C18.4395 21.958 19.6082 21.474 20.5763 20.5059C21.5444 19.5379 22.0284 18.3691 22.0284 16.9997C22.0284 15.6302 21.5444 14.4615 20.5763 13.4934C19.6082 12.5254 18.4395 12.0413 17.0701 12.0413C15.677 12.0413 14.5023 12.5254 13.5461 13.4934C12.5898 14.4615 12.1117 15.6302 12.1117 16.9997C12.1117 18.3691 12.5898 19.5379 13.5461 20.5059C14.5023 21.474 15.677 21.958 17.0701 21.958Z" fill="#EA8B00"/>
</svg>
