<svg width="400" height="277" viewBox="0 0 400 277" fill="none" xmlns="http://www.w3.org/2000/svg">
<rect x="1" y="1" width="398" height="275" rx="29" stroke="#171717" stroke-width="2" stroke-dasharray="10 15"/>
<path d="M277.042 187.208C277.042 190.899 275.576 194.439 272.966 197.049C270.356 199.659 266.816 201.125 263.125 201.125H137.875C134.184 201.125 130.644 199.659 128.035 197.049C125.425 194.439 123.958 190.899 123.958 187.208V110.667C123.958 106.976 125.425 103.436 128.035 100.826C130.644 98.2162 134.184 96.75 137.875 96.75H165.708L179.625 75.875H221.375L235.292 96.75H263.125C266.816 96.75 270.356 98.2162 272.966 100.826C275.576 103.436 277.042 106.976 277.042 110.667V187.208Z" stroke="#1E1E1E" stroke-width="13.9167" stroke-linecap="round" stroke-linejoin="round"/>
<path d="M200.5 173.292C215.872 173.292 228.334 160.83 228.334 145.458C228.334 130.086 215.872 117.625 200.5 117.625C185.128 117.625 172.667 130.086 172.667 145.458C172.667 160.83 185.128 173.292 200.5 173.292Z" stroke="#1E1E1E" stroke-width="13.9167" stroke-linecap="round" stroke-linejoin="round"/>
</svg>
