<svg width="32" height="32" viewBox="0 0 32 32" fill="none" xmlns="http://www.w3.org/2000/svg">
<path d="M24.1105 22.4443C23.3616 22.5701 22.8564 23.2792 22.9823 24.0281C23.1081 24.777 23.8171 25.2821 24.566 25.1563L24.1105 22.4443ZM22.6869 15.1352C21.9276 15.1352 21.3119 15.7508 21.3119 16.5102C21.3119 17.2695 21.9276 17.8852 22.6869 17.8852V15.1352ZM21.4565 13.7522C23.4476 13.7522 25.0611 12.1377 25.0611 10.147H22.3111C22.3111 10.6197 21.9281 11.0022 21.4565 11.0022V13.7522ZM17.8519 10.147C17.8519 12.1377 19.4654 13.7522 21.4565 13.7522V11.0022C20.9849 11.0022 20.6019 10.6197 20.6019 10.147H17.8519ZM21.4565 6.54177C19.4654 6.54177 17.8519 8.15624 17.8519 10.147H20.6019C20.6019 9.6743 20.9849 9.29177 21.4565 9.29177V6.54177ZM25.0611 10.147C25.0611 8.15624 23.4476 6.54177 21.4565 6.54177V9.29177C21.9281 9.29177 22.3111 9.6743 22.3111 10.147H25.0611ZM26.625 20.2191C26.625 20.7591 26.4552 21.1969 26.1246 21.5438C25.7817 21.9036 25.1665 22.2669 24.1105 22.4443L24.566 25.1563C26.0454 24.9078 27.2611 24.3372 28.1152 23.4412C28.9816 22.5323 29.375 21.3924 29.375 20.2191H26.625ZM22.6869 17.8852C23.9074 17.8852 24.9531 18.2327 25.6568 18.7239C26.365 19.2184 26.625 19.7685 26.625 20.2191H29.375C29.375 18.6214 28.4456 17.317 27.2309 16.469C26.0116 15.6179 24.4008 15.1352 22.6869 15.1352V17.8852ZM13.6417 9.90613C13.6417 11.2669 12.7527 11.9996 11.8558 11.9996V14.7496C14.4503 14.7496 16.3917 12.6005 16.3917 9.90613H13.6417ZM11.8558 11.9996C10.9588 11.9996 10.0698 11.2669 10.0698 9.90613H7.31983C7.31983 12.6005 9.26122 14.7496 11.8558 14.7496V11.9996ZM10.0698 9.90613C10.0698 9.22679 10.2988 8.78476 10.5793 8.51191C10.8683 8.23081 11.3025 8.04199 11.8558 8.04199V5.29199C10.6633 5.29199 9.517 5.70895 8.66198 6.54054C7.79849 7.38036 7.31983 8.5579 7.31983 9.90613H10.0698ZM11.8558 8.04199C12.4091 8.04199 12.8432 8.23081 13.1322 8.51191C13.4128 8.78476 13.6417 9.22679 13.6417 9.90613H16.3917C16.3917 8.5579 15.9131 7.38036 15.0496 6.54054C14.1945 5.70895 13.0482 5.29199 11.8558 5.29199V8.04199ZM18.7187 21.5575C18.7187 21.9548 18.5254 22.4934 17.5377 23.0084C16.5045 23.5471 14.7443 23.9587 12.0468 23.9587V26.7087C14.9578 26.7087 17.221 26.2749 18.8091 25.4469C20.4427 24.5951 21.4687 23.2457 21.4687 21.5575H18.7187ZM12.0468 23.9587C9.34943 23.9587 7.58915 23.5471 6.55595 23.0084C5.56826 22.4934 5.375 21.9548 5.375 21.5575H2.625C2.625 23.2457 3.65096 24.5951 5.28459 25.4469C6.87271 26.2749 9.13585 26.7087 12.0468 26.7087V23.9587ZM5.375 21.5575C5.375 21.3622 5.59626 20.7631 6.941 20.1321C8.17664 19.5522 9.98033 19.1563 12.0468 19.1563V16.4063C9.6692 16.4063 7.44948 16.8557 5.77274 17.6426C4.20509 18.3782 2.625 19.6672 2.625 21.5575H5.375ZM12.0468 19.1563C14.1134 19.1563 15.9171 19.5522 17.1527 20.1321C18.4974 20.7631 18.7187 21.3622 18.7187 21.5575H21.4687C21.4687 19.6672 19.8886 18.3782 18.321 17.6426C16.6442 16.8557 14.4245 16.4063 12.0468 16.4063V19.1563Z" fill="#EA8B00"/>
</svg>
