<svg width="169" height="38" viewBox="0 0 169 38" fill="none" xmlns="http://www.w3.org/2000/svg">
<path d="M17.667 26.7208L10.6002 6.80636C8.78922 7.67545 7.1643 8.8704 5.80142 10.3152L12.4004 28.6334C14.2803 28.0688 16.0289 27.4395 17.667 26.7208Z" fill="#171717"/>
<path d="M4.54814 31.1033C7.63017 30.8913 10.4068 30.5749 12.9343 30.1155L12.4004 28.6334C9.90915 29.3815 7.18725 30.0157 4.186 30.5931C4.30351 30.7656 4.42425 30.9357 4.54814 31.1033Z" fill="#171717"/>
<path d="M17.9088 26.6136C20.9162 25.2689 23.5498 23.6148 25.9415 21.4965L29.9609 11.066L24.361 9.06997L17.9088 26.6136Z" fill="#171717"/>
<path d="M24.1123 26.2435C26.0674 25.1021 27.85 23.722 29.5282 22.0565C30.8661 20.7286 32.1378 19.2193 33.3776 17.5047C33.0867 16.3417 32.6705 15.2284 32.144 14.1799C30.2168 17.1127 28.1856 19.509 25.9415 21.4965L24.1123 26.2435Z" fill="#171717"/>
<path d="M12.9343 30.1155L15.0616 36.0207H20.3447L24.1123 26.2435C22.361 27.2658 20.4713 28.0967 18.3941 28.7697C17.9248 28.9218 17.4459 29.0658 16.9568 29.2021C15.6876 29.556 14.35 29.8582 12.9343 30.1155Z" fill="#171717"/>
<path fill-rule="evenodd" clip-rule="evenodd" d="M15.0616 36.0207L12.9343 30.1155C10.4068 30.5749 7.63017 30.8913 4.54814 31.1033C4.42425 30.9357 4.30351 30.7656 4.186 30.5931C7.18725 30.0157 9.90915 29.3815 12.4004 28.6334L5.80142 10.3152C7.1643 8.8704 8.78922 7.67545 10.6002 6.80636L17.667 26.7208C17.7479 26.6853 17.8285 26.6496 17.9088 26.6136L24.361 9.06997L29.9609 11.066L25.9415 21.4965C28.1856 19.509 30.2168 17.1127 32.144 14.1799C32.6705 15.2284 33.0867 16.3417 33.3776 17.5047C32.1378 19.2193 30.8661 20.7286 29.5282 22.0565C27.85 23.722 26.0674 25.1021 24.1123 26.2435L20.3447 36.0207H15.0616ZM30.8683 12.0597C27.9246 7.91784 23.0875 5.21568 17.6192 5.21568C15.1053 5.21568 12.7247 5.7868 10.6002 6.80636L9.38983 3.39554L2.08546 0L5.80142 10.3152C3.05785 13.2237 1.37616 17.1448 1.37616 21.4587C1.37616 24.8456 2.41276 27.9904 4.186 30.5931C2.84765 30.8506 1.45376 31.0968 0 31.3368C1.58722 31.2793 3.10133 31.2028 4.54814 31.1033C7.50654 35.1061 12.2597 37.7018 17.6192 37.7018C26.59 37.7018 33.8623 30.4295 33.8623 21.4587C33.8623 20.0949 33.6942 18.7704 33.3776 17.5047C34.6805 15.7031 35.9482 13.6748 37.221 11.3925L38.5228 13.8927L40.6437 13.5456L37.4187 7.14734L30.5691 10.232L30.8683 12.0597ZM30.9586 12.1881C31.399 12.8207 31.7957 13.4861 32.144 14.1799C32.8109 13.1651 33.4654 12.086 34.1119 10.9374L30.9586 12.1881ZM30.9586 12.1881C30.9287 12.1452 30.8986 12.1024 30.8683 12.0597L30.8935 12.2139L30.9586 12.1881Z" fill="#941818"/>
<path d="M12.4004 28.6334L12.9343 30.1155C14.35 29.8582 15.6876 29.556 16.9568 29.2021C17.4459 29.0658 17.9248 28.9218 18.3941 28.7697C20.4713 28.0967 22.361 27.2658 24.1123 26.2435L25.9415 21.4965C23.5498 23.6148 20.9162 25.2689 17.9088 26.6136L17.7664 27.0009L17.667 26.7208C16.0289 27.4395 14.2803 28.0688 12.4004 28.6334Z" fill="#171717"/>
<path d="M17.667 26.7208L17.7664 27.0009L17.9088 26.6136C17.8285 26.6496 17.7479 26.6853 17.667 26.7208Z" fill="#171717"/>
<path d="M55.6164 30.6836L48.3346 11.7829H52.8322L58.3739 27.0694H56.5267L62.1487 11.7829H66.5928L59.2306 30.6836H55.6164ZM71.4141 30.9513C70.2183 30.9513 69.1475 30.6568 68.2016 30.0678C67.2735 29.4789 66.5328 28.6757 65.9795 27.6584C65.4441 26.6411 65.1764 25.481 65.1764 24.1781C65.1764 22.8752 65.4441 21.7151 65.9795 20.6978C66.5328 19.6805 67.2735 18.8774 68.2016 18.2884C69.1475 17.6994 70.2183 17.4049 71.4141 17.4049C72.2887 17.4049 73.074 17.5745 73.77 17.9136C74.4839 18.2527 75.064 18.7257 75.5102 19.3325C75.9564 19.9215 76.2062 20.5997 76.2598 21.3671V26.9891C76.2062 27.7566 75.9564 28.4437 75.5102 29.0505C75.0818 29.6395 74.5107 30.1035 73.7968 30.4427C73.0829 30.7818 72.2887 30.9513 71.4141 30.9513ZM72.244 27.2568C73.1186 27.2568 73.8236 26.9713 74.359 26.4002C74.8944 25.8112 75.1621 25.0705 75.1621 24.1781C75.1621 23.5713 75.0372 23.0359 74.7873 22.5718C74.5553 22.1078 74.2162 21.7508 73.77 21.501C73.3417 21.2333 72.8419 21.0994 72.2708 21.0994C71.6997 21.0994 71.191 21.2333 70.7448 21.501C70.3165 21.7508 69.9685 22.1078 69.7008 22.5718C69.4509 23.0359 69.326 23.5713 69.326 24.1781C69.326 24.7671 69.4509 25.2936 69.7008 25.7576C69.9506 26.2217 70.2987 26.5876 70.7448 26.8553C71.191 27.123 71.6908 27.2568 72.244 27.2568ZM75.0015 30.6836V27.1765L75.6173 24.0175L75.0015 20.8585V17.6726H79.0172V30.6836H75.0015ZM90.4949 30.6836V23.2679C90.4949 22.5897 90.2807 22.0453 89.8524 21.6348C89.4419 21.2065 88.9154 20.9923 88.2729 20.9923C87.8267 20.9923 87.434 21.0905 87.0949 21.2868C86.7558 21.4653 86.4881 21.733 86.2918 22.0899C86.0954 22.4291 85.9973 22.8217 85.9973 23.2679L84.4178 22.4915C84.4178 21.4742 84.6409 20.5818 85.087 19.8144C85.5332 19.0469 86.149 18.4579 86.9343 18.0474C87.7374 17.6191 88.6387 17.4049 89.6382 17.4049C90.602 17.4049 91.4497 17.637 92.1815 18.101C92.9311 18.5472 93.5201 19.1451 93.9484 19.8947C94.3767 20.6443 94.5909 21.4653 94.5909 22.3577V30.6836H90.4949ZM81.9012 30.6836V17.6726H85.9973V30.6836H81.9012ZM102.737 36.5198C101.309 36.5198 100.05 36.2699 98.9618 35.7702C97.8909 35.2883 97.0432 34.6012 96.4185 33.7088L98.935 31.1923C99.3991 31.7455 99.9166 32.1649 100.488 32.4505C101.077 32.7361 101.782 32.8789 102.603 32.8789C103.62 32.8789 104.414 32.629 104.985 32.1293C105.574 31.6295 105.869 30.9245 105.869 30.0143V26.6946L106.565 23.8569L105.949 21.0191V17.6726H109.965V29.9072C109.965 31.2458 109.653 32.4059 109.028 33.3875C108.403 34.3691 107.547 35.1366 106.458 35.6899C105.369 36.2431 104.129 36.5198 102.737 36.5198ZM102.549 30.282C101.353 30.282 100.291 29.9965 99.3634 29.4253C98.4353 28.8542 97.7035 28.0778 97.1681 27.0962C96.6327 26.1146 96.365 25.0259 96.365 23.8301C96.365 22.6165 96.6327 21.5277 97.1681 20.564C97.7035 19.5823 98.4353 18.8149 99.3634 18.2616C100.291 17.6905 101.353 17.4049 102.549 17.4049C103.442 17.4049 104.236 17.5745 104.932 17.9136C105.646 18.2348 106.217 18.6989 106.645 19.3057C107.091 19.8947 107.341 20.5818 107.395 21.3671V26.3198C107.341 27.0873 107.091 27.7744 106.645 28.3812C106.217 28.9702 105.646 29.4343 104.932 29.7734C104.218 30.1125 103.424 30.282 102.549 30.282ZM103.326 26.6411C103.897 26.6411 104.387 26.5162 104.798 26.2663C105.226 26.0164 105.548 25.6862 105.762 25.2758C105.994 24.8474 106.11 24.3655 106.11 23.8301C106.11 23.2947 105.994 22.8128 105.762 22.3844C105.548 21.9561 105.226 21.617 104.798 21.3671C104.387 21.1172 103.897 20.9923 103.326 20.9923C102.772 20.9923 102.281 21.1172 101.853 21.3671C101.425 21.617 101.095 21.9561 100.863 22.3844C100.631 22.8128 100.515 23.2947 100.515 23.8301C100.515 24.3298 100.631 24.8028 100.863 25.249C101.095 25.6773 101.416 26.0164 101.826 26.2663C102.255 26.5162 102.754 26.6411 103.326 26.6411ZM118.638 30.9781C117.443 30.9781 116.381 30.7371 115.453 30.2552C114.542 29.7555 113.828 29.0773 113.311 28.2206C112.793 27.3461 112.535 26.3466 112.535 25.2222V17.6726H116.631V25.1687C116.631 25.6149 116.702 25.9986 116.845 26.3198C117.005 26.6411 117.237 26.891 117.541 27.0694C117.844 27.2479 118.21 27.3372 118.638 27.3372C119.245 27.3372 119.727 27.1498 120.084 26.775C120.441 26.3823 120.62 25.8469 120.62 25.1687V17.6726H124.716V25.1954C124.716 26.3377 124.457 27.3461 123.939 28.2206C123.422 29.0773 122.708 29.7555 121.797 30.2552C120.887 30.7371 119.834 30.9781 118.638 30.9781ZM132.722 30.9513C131.526 30.9513 130.455 30.6568 129.509 30.0678C128.581 29.4789 127.841 28.6757 127.287 27.6584C126.752 26.6411 126.484 25.481 126.484 24.1781C126.484 22.8752 126.752 21.7151 127.287 20.6978C127.841 19.6805 128.581 18.8774 129.509 18.2884C130.455 17.6994 131.526 17.4049 132.722 17.4049C133.596 17.4049 134.382 17.5745 135.078 17.9136C135.792 18.2527 136.372 18.7257 136.818 19.3325C137.264 19.9215 137.514 20.5997 137.568 21.3671V26.9891C137.514 27.7566 137.264 28.4437 136.818 29.0505C136.39 29.6395 135.818 30.1035 135.105 30.4427C134.391 30.7818 133.596 30.9513 132.722 30.9513ZM133.552 27.2568C134.426 27.2568 135.131 26.9713 135.667 26.4002C136.202 25.8112 136.47 25.0705 136.47 24.1781C136.47 23.5713 136.345 23.0359 136.095 22.5718C135.863 22.1078 135.524 21.7508 135.078 21.501C134.649 21.2333 134.15 21.0994 133.579 21.0994C133.007 21.0994 132.499 21.2333 132.053 21.501C131.624 21.7508 131.276 22.1078 131.009 22.5718C130.759 23.0359 130.634 23.5713 130.634 24.1781C130.634 24.7671 130.759 25.2936 131.009 25.7576C131.258 26.2217 131.606 26.5876 132.053 26.8553C132.499 27.123 132.999 27.2568 133.552 27.2568ZM136.309 30.6836V27.1765L136.925 24.0175L136.309 20.8585V17.6726H140.325V30.6836H136.309ZM143.209 30.6836V17.6726H147.305V30.6836H143.209ZM147.305 23.5356L145.592 22.197C145.931 20.68 146.502 19.502 147.305 18.6632C148.108 17.8244 149.224 17.4049 150.651 17.4049C151.276 17.4049 151.82 17.5031 152.285 17.6994C152.766 17.8779 153.186 18.1635 153.543 18.5561L151.107 21.6348C150.928 21.4385 150.705 21.2868 150.437 21.1797C150.17 21.0726 149.866 21.0191 149.527 21.0191C148.849 21.0191 148.305 21.2333 147.894 21.6616C147.501 22.0721 147.305 22.6968 147.305 23.5356ZM159.81 30.9513C158.578 30.9513 157.481 30.6568 156.517 30.0678C155.571 29.4789 154.821 28.6757 154.268 27.6584C153.732 26.6411 153.465 25.481 153.465 24.1781C153.465 22.8752 153.732 21.7151 154.268 20.6978C154.821 19.6805 155.571 18.8774 156.517 18.2884C157.481 17.6994 158.578 17.4049 159.81 17.4049C160.702 17.4049 161.505 17.5745 162.219 17.9136C162.951 18.2527 163.549 18.7257 164.013 19.3325C164.495 19.9215 164.762 20.5997 164.816 21.3671V26.8553C164.762 27.6227 164.504 28.3188 164.04 28.9434C163.575 29.5503 162.978 30.0411 162.246 30.4159C161.514 30.7728 160.702 30.9513 159.81 30.9513ZM160.532 27.2568C161.121 27.2568 161.63 27.1319 162.058 26.882C162.487 26.6143 162.826 26.2484 163.076 25.7844C163.326 25.3204 163.451 24.7849 163.451 24.1781C163.451 23.5713 163.326 23.0448 163.076 22.5986C162.844 22.1346 162.505 21.7687 162.058 21.501C161.63 21.2333 161.13 21.0994 160.559 21.0994C159.988 21.0994 159.479 21.2333 159.033 21.501C158.605 21.7687 158.257 22.1346 157.989 22.5986C157.739 23.0626 157.614 23.5891 157.614 24.1781C157.614 24.7671 157.739 25.2936 157.989 25.7576C158.239 26.2217 158.587 26.5876 159.033 26.8553C159.479 27.123 159.979 27.2568 160.532 27.2568ZM167.306 30.6836H163.29V27.1765L163.906 24.0175L163.21 20.8585V11.2475H167.306V30.6836Z" fill="white"/>
</svg>
