<svg width="162" height="36" viewBox="0 0 162 36" fill="none" xmlns="http://www.w3.org/2000/svg">
<path d="M17.7274 25.3646L11.0192 6.46092C9.30018 7.28591 7.75773 8.42021 6.46402 9.7917L12.7281 27.1802C14.5126 26.6443 16.1724 26.0469 17.7274 25.3646Z" fill="#171717"/>
<path d="M5.27434 29.5248C8.19996 29.3235 10.8357 29.0232 13.2349 28.5871L12.7281 27.1802C10.3633 27.8903 7.77951 28.4923 4.93059 29.0405C5.04213 29.2042 5.15674 29.3657 5.27434 29.5248Z" fill="#171717"/>
<path d="M17.957 25.263C20.8117 23.9865 23.3116 22.4163 25.582 20.4055L29.3973 10.5044L24.0816 8.60965L17.957 25.263Z" fill="#171717"/>
<path d="M23.8456 24.9116C25.7015 23.8281 27.3936 22.5181 28.9866 20.9371C30.2567 19.6766 31.4637 18.2439 32.6407 16.6163C32.3646 15.5124 31.9694 14.4555 31.4697 13.4603C29.6403 16.2442 27.7122 18.5189 25.582 20.4055L23.8456 24.9116Z" fill="#171717"/>
<path d="M13.2349 28.5871L15.2542 34.1926H20.2692L23.8456 24.9116C22.1832 25.882 20.3894 26.6707 18.4176 27.3096C17.9721 27.454 17.5175 27.5907 17.0533 27.7201C15.8484 28.056 14.5788 28.3429 13.2349 28.5871Z" fill="#171717"/>
<path fill-rule="evenodd" clip-rule="evenodd" d="M15.2542 34.1926L13.2349 28.5871C10.8357 29.0232 8.19996 29.3235 5.27434 29.5248C5.15674 29.3657 5.04213 29.2042 4.93059 29.0405C7.77951 28.4923 10.3633 27.8903 12.7281 27.1802L6.46402 9.7917C7.75773 8.42021 9.30018 7.28591 11.0192 6.46092L17.7274 25.3646C17.8042 25.331 17.8807 25.2971 17.957 25.263L24.0816 8.60965L29.3973 10.5044L25.582 20.4055C27.7122 18.5189 29.6403 16.2442 31.4697 13.4603C31.9694 14.4555 32.3646 15.5124 32.6407 16.6163C31.4637 18.2439 30.2567 19.6766 28.9866 20.9371C27.3936 22.5181 25.7015 23.8281 23.8456 24.9116L20.2692 34.1926H15.2542ZM30.2587 11.4477C27.4645 7.516 22.8728 4.95098 17.682 4.95098C15.2957 4.95098 13.0359 5.49311 11.0192 6.46092L9.87031 3.22321L2.93665 0L6.46402 9.7917C3.85969 12.5526 2.26335 16.2747 2.26335 20.3697C2.26335 23.5847 3.24734 26.5699 4.93059 29.0405C3.66016 29.2849 2.33701 29.5186 0.957031 29.7464C2.4637 29.6919 3.90096 29.6192 5.27434 29.5248C8.0826 33.3244 12.5946 35.7884 17.682 35.7884C26.1975 35.7884 33.1007 28.8852 33.1007 20.3697C33.1007 19.0751 32.9412 17.8178 32.6407 16.6163C33.8774 14.9061 35.0808 12.9808 36.289 10.8143L37.5247 13.1876L39.538 12.8581L36.4767 6.78461L29.9747 9.71275L30.2587 11.4477ZM30.3444 11.5695C30.7625 12.17 31.139 12.8017 31.4697 13.4603C32.1028 12.497 32.724 11.4727 33.3377 10.3823L30.3444 11.5695ZM30.3444 11.5695C30.316 11.5288 30.2874 11.4881 30.2587 11.4477L30.2826 11.5941L30.3444 11.5695Z" fill="#941818"/>
<path d="M12.7281 27.1802L13.2349 28.5871C14.5788 28.3429 15.8484 28.056 17.0533 27.7201C17.5175 27.5907 17.9721 27.454 18.4176 27.3096C20.3894 26.6707 22.1832 25.882 23.8456 24.9116L25.582 20.4055C23.3116 22.4163 20.8117 23.9865 17.957 25.263L17.8218 25.6306L17.7274 25.3646C16.1724 26.0469 14.5126 26.6443 12.7281 27.1802Z" fill="#171717"/>
<path d="M17.7274 25.3646L17.8218 25.6306L17.957 25.263C17.8807 25.2971 17.8042 25.331 17.7274 25.3646Z" fill="#171717"/>
<path d="M53.7486 28.499L46.8363 10.5576H51.1056L56.3661 25.0683H54.6126L59.9493 10.5576H64.1678L57.1793 28.499H53.7486ZM68.7445 28.7532C67.6094 28.7532 66.5929 28.4736 65.695 27.9145C64.814 27.3554 64.1109 26.5931 63.5857 25.6274C63.0775 24.6617 62.8233 23.5605 62.8233 22.3237C62.8233 21.087 63.0775 19.9857 63.5857 19.02C64.1109 18.0544 64.814 17.292 65.695 16.7329C66.5929 16.1738 67.6094 15.8943 68.7445 15.8943C69.5747 15.8943 70.3201 16.0552 70.9808 16.3771C71.6585 16.699 72.2091 17.148 72.6327 17.724C73.0562 18.2831 73.2934 18.9269 73.3442 19.6554V24.9921C73.2934 25.7206 73.0562 26.3728 72.6327 26.9488C72.2261 27.5079 71.6839 27.9484 71.0062 28.2703C70.3286 28.5922 69.5747 28.7532 68.7445 28.7532ZM69.5323 25.2462C70.3625 25.2462 71.0317 24.9751 71.5399 24.433C72.0482 23.8739 72.3023 23.1708 72.3023 22.3237C72.3023 21.7477 72.1837 21.2394 71.9465 20.7989C71.7263 20.3585 71.4044 20.0196 70.9808 19.7824C70.5742 19.5283 70.0999 19.4012 69.5577 19.4012C69.0156 19.4012 68.5327 19.5283 68.1092 19.7824C67.7026 20.0196 67.3722 20.3585 67.1181 20.7989C66.8809 21.2394 66.7623 21.7477 66.7623 22.3237C66.7623 22.8828 66.8809 23.3826 67.1181 23.8231C67.3553 24.2636 67.6856 24.6109 68.1092 24.865C68.5327 25.1191 69.0071 25.2462 69.5323 25.2462ZM72.1498 28.499V25.1699L72.7343 22.1712L72.1498 19.1725V16.1484H75.9617V28.499H72.1498ZM86.8569 28.499V21.4597C86.8569 20.8159 86.6536 20.2992 86.247 19.9095C85.8573 19.5029 85.3575 19.2996 84.7476 19.2996C84.3241 19.2996 83.9514 19.3928 83.6295 19.5791C83.3076 19.7485 83.0534 20.0027 82.8671 20.3415C82.6807 20.6634 82.5875 21.0361 82.5875 21.4597L81.0882 20.7227C81.0882 19.757 81.3 18.9099 81.7235 18.1814C82.147 17.4529 82.7315 16.8938 83.477 16.5042C84.2394 16.0976 85.0949 15.8943 86.0437 15.8943C86.9585 15.8943 87.7633 16.1145 88.4579 16.555C89.1694 16.9786 89.7285 17.5461 90.1351 18.2577C90.5417 18.9692 90.745 19.7485 90.745 20.5956V28.499H86.8569ZM78.6994 28.499V16.1484H82.5875V28.499H78.6994ZM98.4773 34.039C97.1219 34.039 95.9275 33.8018 94.8941 33.3275C93.8776 32.87 93.0728 32.2178 92.4799 31.3707L94.8687 28.9819C95.3092 29.5071 95.8005 29.9052 96.3426 30.1763C96.9017 30.4473 97.5709 30.5829 98.3502 30.5829C99.3159 30.5829 100.07 30.3457 100.612 29.8713C101.171 29.3969 101.451 28.7277 101.451 27.8637V24.7125L102.111 22.0188L101.527 19.325V16.1484H105.339V27.7621C105.339 29.0327 105.042 30.1339 104.449 31.0657C103.856 31.9975 103.043 32.726 102.01 33.2512C100.976 33.7764 99.7987 34.039 98.4773 34.039ZM98.2994 28.1178C97.1643 28.1178 96.1562 27.8468 95.2753 27.3046C94.3943 26.7625 93.6997 26.0255 93.1914 25.0937C92.6832 24.1619 92.429 23.1285 92.429 21.9933C92.429 20.8413 92.6832 19.8078 93.1914 18.893C93.6997 17.9612 94.3943 17.2327 95.2753 16.7075C96.1562 16.1653 97.1643 15.8943 98.2994 15.8943C99.1465 15.8943 99.9004 16.0552 100.561 16.3771C101.239 16.6821 101.781 17.1226 102.188 17.6986C102.611 18.2577 102.848 18.9099 102.899 19.6554V24.3567C102.848 25.0852 102.611 25.7375 102.188 26.3135C101.781 26.8726 101.239 27.3131 100.561 27.635C99.8835 27.9569 99.1295 28.1178 98.2994 28.1178ZM99.0364 24.6617C99.5785 24.6617 100.044 24.5431 100.434 24.3059C100.841 24.0687 101.146 23.7553 101.349 23.3656C101.569 22.959 101.679 22.5016 101.679 21.9933C101.679 21.4851 101.569 21.0277 101.349 20.6211C101.146 20.2145 100.841 19.8926 100.434 19.6554C100.044 19.4182 99.5785 19.2996 99.0364 19.2996C98.5112 19.2996 98.0453 19.4182 97.6387 19.6554C97.2321 19.8926 96.9186 20.2145 96.6984 20.6211C96.4781 21.0277 96.368 21.4851 96.368 21.9933C96.368 22.4677 96.4781 22.9167 96.6984 23.3402C96.9186 23.7468 97.2236 24.0687 97.6132 24.3059C98.0199 24.5431 98.4942 24.6617 99.0364 24.6617ZM113.572 28.7786C112.437 28.7786 111.429 28.5498 110.548 28.0924C109.684 27.618 109.006 26.9743 108.515 26.161C108.024 25.3309 107.778 24.3822 107.778 23.3148V16.1484H111.666V23.264C111.666 23.6875 111.734 24.0518 111.869 24.3567C112.022 24.6617 112.242 24.8989 112.53 25.0683C112.818 25.2377 113.165 25.3224 113.572 25.3224C114.148 25.3224 114.606 25.1445 114.944 24.7888C115.283 24.416 115.453 23.9078 115.453 23.264V16.1484H119.341V23.2894C119.341 24.3737 119.095 25.3309 118.604 26.161C118.113 26.9743 117.435 27.618 116.571 28.0924C115.707 28.5498 114.707 28.7786 113.572 28.7786ZM126.941 28.7532C125.806 28.7532 124.789 28.4736 123.891 27.9145C123.01 27.3554 122.307 26.5931 121.782 25.6274C121.274 24.6617 121.02 23.5605 121.02 22.3237C121.02 21.087 121.274 19.9857 121.782 19.02C122.307 18.0544 123.01 17.292 123.891 16.7329C124.789 16.1738 125.806 15.8943 126.941 15.8943C127.771 15.8943 128.516 16.0552 129.177 16.3771C129.855 16.699 130.405 17.148 130.829 17.724C131.253 18.2831 131.49 18.9269 131.541 19.6554V24.9921C131.49 25.7206 131.253 26.3728 130.829 26.9488C130.422 27.5079 129.88 27.9484 129.203 28.2703C128.525 28.5922 127.771 28.7532 126.941 28.7532ZM127.729 25.2462C128.559 25.2462 129.228 24.9751 129.736 24.433C130.244 23.8739 130.499 23.1708 130.499 22.3237C130.499 21.7477 130.38 21.2394 130.143 20.7989C129.923 20.3585 129.601 20.0196 129.177 19.7824C128.771 19.5283 128.296 19.4012 127.754 19.4012C127.212 19.4012 126.729 19.5283 126.305 19.7824C125.899 20.0196 125.569 20.3585 125.314 20.7989C125.077 21.2394 124.959 21.7477 124.959 22.3237C124.959 22.8828 125.077 23.3826 125.314 23.8231C125.552 24.2636 125.882 24.6109 126.305 24.865C126.729 25.1191 127.203 25.2462 127.729 25.2462ZM130.346 28.499V25.1699L130.931 22.1712L130.346 19.1725V16.1484H134.158V28.499H130.346ZM136.896 28.499V16.1484H140.784V28.499H136.896ZM140.784 21.7138L139.157 20.4432C139.479 19.0031 140.021 17.8849 140.784 17.0887C141.546 16.2924 142.605 15.8943 143.96 15.8943C144.553 15.8943 145.07 15.9875 145.511 16.1738C145.968 16.3432 146.366 16.6143 146.705 16.987L144.392 19.9095C144.223 19.7231 144.011 19.5791 143.757 19.4775C143.503 19.3758 143.215 19.325 142.893 19.325C142.249 19.325 141.733 19.5283 141.343 19.9349C140.97 20.3246 140.784 20.9175 140.784 21.7138ZM152.654 28.7532C151.485 28.7532 150.443 28.4736 149.528 27.9145C148.63 27.3554 147.919 26.5931 147.393 25.6274C146.885 24.6617 146.631 23.5605 146.631 22.3237C146.631 21.087 146.885 19.9857 147.393 19.02C147.919 18.0544 148.63 17.292 149.528 16.7329C150.443 16.1738 151.485 15.8943 152.654 15.8943C153.501 15.8943 154.263 16.0552 154.941 16.3771C155.636 16.699 156.203 17.148 156.644 17.724C157.101 18.2831 157.355 18.9269 157.406 19.6554V24.865C157.355 25.5935 157.11 26.2542 156.669 26.8472C156.229 27.4232 155.661 27.8891 154.966 28.2449C154.272 28.5837 153.501 28.7532 152.654 28.7532ZM153.34 25.2462C153.899 25.2462 154.382 25.1276 154.788 24.8904C155.195 24.6363 155.517 24.289 155.754 23.8485C155.991 23.408 156.11 22.8997 156.11 22.3237C156.11 21.7477 155.991 21.2479 155.754 20.8244C155.534 20.3839 155.212 20.0366 154.788 19.7824C154.382 19.5283 153.907 19.4012 153.365 19.4012C152.823 19.4012 152.34 19.5283 151.917 19.7824C151.51 20.0366 151.18 20.3839 150.926 20.8244C150.689 21.2648 150.57 21.7646 150.57 22.3237C150.57 22.8828 150.689 23.3826 150.926 23.8231C151.163 24.2636 151.493 24.6109 151.917 24.865C152.34 25.1191 152.815 25.2462 153.34 25.2462ZM159.769 28.499H155.957V25.1699L156.542 22.1712L155.881 19.1725V10.0493H159.769V28.499Z" fill="black"/>
</svg>
